# xmcd
#
# Track frame offsets:
#	150
#	14841
#	37257
#	56442
#	70521
#	89724
#	107382
#	126148
#	146946
#	165584
#	189516
#	205673
#
# Disc length: 2995 seconds
#
# Revision: 0
# Processed by: cddbd v1.5.2PL0 Copyright (c) Steve Scherf et al.
# Submitted via: audiograbber 1.83.01
#
DISCID=ac0bb10c
DTITLE=Best Of The Bay - Volume One
DYEAR=2000
DGENRE=R&B
TTITLE0=Ross Sistas - Baby I'm Yours
TTITLE1=Jonathan - Helplessly Without You
TTITLE2=Epic Voices - Morning After
TTITLE3=Lalaine - Where Are You Now
TTITLE4=Rocio Marie - You're Someone Special
TTITLE5=Native Elements - World People
TTITLE6=Justa Dream - Memories In My Mind
TTITLE7=JAR - Don't Lie
TTITLE8=Es'Cence - Pain
TTITLE9=Shayla - Read My Mind
TTITLE10=Pamela Serrano - Stay In My Arms
TTITLE11=Vokali - Play The Game
EXTD=www.RapMusicGuide.com
EXTT0=
EXTT1=
EXTT2=
EXTT3=
EXTT4=
EXTT5=
EXTT6=
EXTT7=
EXTT8=
EXTT9=
EXTT10=
EXTT11=
PLAYORDER=
